<?xml version="1.0" encoding="UTF-8"?>
<svg version="1.1" xmlns="http://www.w3.org/2000/svg" width="457" height="465">
<path d="M0 0 C150.81 0 301.62 0 457 0 C457 153.45 457 306.9 457 465 C306.19 465 155.38 465 0 465 C0 311.55 0 158.1 0 0 Z " fill="#ED1B3B" transform="translate(0,0)"/>
<path d="M0 0 C150.81 0 301.62 0 457 0 C457 153.45 457 306.9 457 465 C306.19 465 155.38 465 0 465 C0 311.55 0 158.1 0 0 Z M13 14 C13 157.55 13 301.1 13 449 C156.88 449 300.76 449 449 449 C449 305.45 449 161.9 449 14 C305.12 14 161.24 14 13 14 Z " fill="#ED1C3C" transform="translate(0,0)"/>
<path d="M0 0 C143.88 0 287.76 0 436 0 C436 143.55 436 287.1 436 435 C292.12 435 148.24 435 0 435 C0 291.45 0 147.9 0 0 Z M11 11 C11 147.62 11 284.24 11 425 C147.62 425 284.24 425 425 425 C425 288.38 425 151.76 425 11 C288.38 11 151.76 11 11 11 Z " fill="#FEF6F7" transform="translate(13,14)"/>
<path d="M0 0 C52.8 0 105.6 0 160 0 C160 37.62 160 75.24 160 114 C106.87 114 53.74 114 -1 114 C-1 111.36 -1 108.72 -1 106 C15.17 106 31.34 106 48 106 C48 103.69 48 101.38 48 99 C32.16 99 16.32 99 0 99 C0 96.36 0 93.72 0 91 C15.84 91 31.68 91 48 91 C48 88.69 48 86.38 48 84 C31.83 84 15.66 84 -1 84 C-1 81.36 -1 78.72 -1 76 C15.17 76 31.34 76 48 76 C48 73.69 48 71.38 48 69 C32.16 69 16.32 69 0 69 C0 66.36 0 63.72 0 61 C16.17 61 32.34 61 49 61 C49 58.36 49 55.72 49 53 C32.83 53 16.66 53 0 53 C0 50.69 0 48.38 0 46 C16.17 46 32.34 46 49 46 C49 43.36 49 40.72 49 38 C32.83 38 16.66 38 0 38 C0 35.69 0 33.38 0 31 C16.17 31 32.34 31 49 31 C49 28.36 49 25.72 49 23 C32.5 23 16 23 -1 23 C-1 20.36 -1 17.72 -1 15 C15.17 15 31.34 15 48 15 C48 12.69 48 10.38 48 8 C32.16 8 16.32 8 0 8 C0 5.36 0 2.72 0 0 Z " fill="#FEFCFC" transform="translate(151,90)"/>
<path d="M0 0 C1.0349762 -0.00960754 2.06995239 -0.01921509 3.1362915 -0.02911377 C4.80664459 -0.03548859 4.80664459 -0.03548859 6.51074219 -0.04199219 C7.66249939 -0.04769226 8.81425659 -0.05339233 10.00091553 -0.05926514 C12.4385893 -0.06870981 14.87627582 -0.075247 17.31396484 -0.07910156 C21.02952568 -0.08879391 24.7445302 -0.11981782 28.45996094 -0.15136719 C30.83105141 -0.1578989 33.20214583 -0.16314871 35.57324219 -0.16699219 C36.67871399 -0.17933899 37.78418579 -0.19168579 38.92315674 -0.20440674 C45.23469462 -0.18632558 50.14823398 0.24838429 55.80761719 3.16113281 C57.6023067 5.9350444 58.06140343 8.11988848 58.08227539 11.39135742 C58.0918074 12.21578842 58.10133942 13.04021942 58.11116028 13.88963318 C58.11024887 14.7720015 58.10933746 15.65436981 58.10839844 16.56347656 C58.11268356 17.47819229 58.11696869 18.39290802 58.12138367 19.33534241 C58.12712042 21.26774265 58.12763205 23.20016448 58.12329102 25.13256836 C58.12013229 28.08452299 58.14359398 31.035474 58.16894531 33.98730469 C58.17121854 35.86686072 58.17192169 37.74641944 58.17089844 39.62597656 C58.18010818 40.50632065 58.18931793 41.38666473 58.19880676 42.29368591 C58.16279895 47.07783495 57.91341133 50.27207603 54.80761719 54.16113281 C51.34178218 56.768315 47.76526375 56.36405219 43.55761719 56.28613281 C41.66269531 56.2590625 41.66269531 56.2590625 39.72949219 56.23144531 C38.28316406 56.19664062 38.28316406 56.19664062 36.80761719 56.16113281 C37.31292969 57.07636719 37.81824219 57.99160156 38.33886719 58.93457031 C38.99533646 60.13497126 39.65157449 61.33549868 40.30761719 62.53613281 C40.64148438 63.13941406 40.97535156 63.74269531 41.31933594 64.36425781 C43.80761719 68.93457031 43.80761719 68.93457031 43.80761719 71.16113281 C39.51761719 71.16113281 35.22761719 71.16113281 30.80761719 71.16113281 C29.80301188 69.03830612 28.80406117 66.9128026 27.80761719 64.78613281 C27.25074219 63.60277344 26.69386719 62.41941406 26.12011719 61.20019531 C24.80761719 58.16113281 24.80761719 58.16113281 24.80761719 56.16113281 C23.79860352 56.18208008 22.78958984 56.20302734 21.75 56.22460938 C18.00047032 56.29710066 14.25100237 56.34296502 10.50097656 56.38085938 C8.87912575 56.40095425 7.25734721 56.42823536 5.63574219 56.46289062 C3.30222738 56.51150552 0.96967161 56.5341217 -1.36425781 56.55175781 C-2.44885284 56.58272552 -2.44885284 56.58272552 -3.55535889 56.61431885 C-7.03388457 56.61586344 -8.84091983 56.43622154 -11.61914062 54.26171875 C-13.84585335 51.28862187 -14.32360109 49.62803069 -14.38525391 45.97436523 C-14.40131683 45.10974167 -14.41737976 44.2451181 -14.43392944 43.35429382 C-14.4783889 39.39823179 -14.51944461 35.44233743 -14.54248047 31.48608398 C-14.5590403 29.3997075 -14.58633059 27.31338775 -14.62451172 25.22729492 C-14.67928545 22.21926441 -14.70115523 19.21256364 -14.71582031 16.20410156 C-14.73848969 15.27373581 -14.76115906 14.34337006 -14.78451538 13.3848114 C-14.76979126 8.86905988 -14.67652402 6.81122831 -11.90966797 3.09594727 C-7.94334682 0.27176981 -4.79926542 0.0360687 0 0 Z " fill="#FEFBFB" transform="translate(245.1923828125,293.8388671875)"/>
<path d="M0 0 C1.05507248 -0.00960754 2.11014496 -0.01921509 3.19718933 -0.02911377 C4.90809502 -0.03548859 4.90809502 -0.03548859 6.65356445 -0.04199219 C7.82893265 -0.04769226 9.00430084 -0.05339233 10.21528625 -0.05926514 C12.706015 -0.06871899 15.19675629 -0.07525064 17.6875 -0.07910156 C21.48435556 -0.08878433 25.28066462 -0.11979562 29.07739258 -0.15136719 C31.49861333 -0.15789963 33.91983794 -0.16314915 36.34106445 -0.16699219 C38.03678841 -0.18551239 38.03678841 -0.18551239 39.76676941 -0.20440674 C46.13648417 -0.18655509 51.12184597 0.20968175 56.8293457 3.16113281 C58.62297243 5.93570871 59.08313104 8.11974678 59.10400391 11.39135742 C59.11353592 12.21578842 59.12306793 13.04021942 59.13288879 13.88963318 C59.13197739 14.7720015 59.13106598 15.65436981 59.13012695 16.56347656 C59.13441208 17.47819229 59.1386972 18.39290802 59.14311218 19.33534241 C59.14884894 21.26774265 59.14936057 23.20016448 59.14501953 25.13256836 C59.1418608 28.08452299 59.16532249 31.035474 59.19067383 33.98730469 C59.19294705 35.86686072 59.19365021 37.74641944 59.19262695 39.62597656 C59.2018367 40.50632065 59.21104645 41.38666473 59.22053528 42.29368591 C59.18488462 47.03038198 59.03491234 50.39555482 55.8293457 54.16113281 C52.54322593 56.24954826 49.89142896 56.41845826 46.03857422 56.43579102 C44.87379044 56.44532303 43.70900665 56.45485504 42.50892639 56.4646759 C41.25470383 56.4637645 40.00048126 56.46285309 38.70825195 56.46191406 C37.41620346 56.46619919 36.12415497 56.47048431 34.79295349 56.47489929 C32.0601694 56.48235207 29.32751453 56.48207716 26.59472656 56.47680664 C23.09984117 56.47101334 19.60548597 56.48794344 16.11068821 56.51115131 C12.76818749 56.5294616 9.42580254 56.52570275 6.08325195 56.52441406 C4.83105362 56.53362381 3.57885529 56.54283356 2.28871155 56.55232239 C1.1207756 56.5460936 -0.04716034 56.53986481 -1.25048828 56.53344727 C-2.78792946 56.5343914 -2.78792946 56.5343914 -4.35643005 56.53535461 C-7.65387025 56.09687711 -9.53073217 55.1649911 -12.1706543 53.16113281 C-13.08584239 50.41556852 -13.31551825 48.69754688 -13.36352539 45.86083984 C-13.37958832 44.99629181 -13.39565125 44.13174377 -13.41220093 43.24099731 C-13.45676417 39.29755564 -13.49769705 35.35427908 -13.52075195 31.41064453 C-13.53732588 29.33110372 -13.56463469 27.25162021 -13.6027832 25.17236328 C-13.6575453 22.17092403 -13.67942278 19.1708168 -13.6940918 16.16894531 C-13.71676117 15.24171661 -13.73943054 14.31448792 -13.76278687 13.35916138 C-13.74789384 8.8084734 -13.66856499 6.81143341 -10.82543945 3.09814453 C-7.12011251 0.39462568 -4.46519514 0.0328357 0 0 Z " fill="#FEF9FA" transform="translate(154.170654296875,293.8388671875)"/>
<path d="M0 0 C150.81 0 301.62 0 457 0 C457 0.33 457 0.66 457 1 C306.52 1 156.04 1 1 1 C1 153.13 1 305.26 1 462 C151.48 462 301.96 462 457 462 C457 462.99 457 463.98 457 465 C306.19 465 155.38 465 0 465 C0 311.55 0 158.1 0 0 Z " fill="#31060D" transform="translate(0,0)"/>
<path d="M0 0 C19.47 0 38.94 0 59 0 C59 7 59 7 57.64575195 9.05712891 C57.01628662 9.60804199 56.38682129 10.15895508 55.73828125 10.7265625 C55.03759521 11.35957275 54.33690918 11.99258301 53.61499023 12.64477539 C52.85516846 13.29824951 52.09534668 13.95172363 51.3125 14.625 C49.7456925 16.03065578 48.18060699 17.43823317 46.6171875 18.84765625 C45.83569336 19.54391113 45.05419922 20.24016602 44.24902344 20.95751953 C41.02944482 23.88142256 37.97900906 26.95548856 34.9375 30.0625 C30.92818429 34.12537997 26.84827092 38.04268305 22.48828125 41.73046875 C20.87189265 43.07539285 20.87189265 43.07539285 19 45 C38.8 45.495 38.8 45.495 59 46 C59 49.63 59 53.26 59 57 C38.21 57 17.42 57 -4 57 C-4 50 -4 50 -2.47460938 47.6640625 C-1.77142578 46.99117188 -1.06824219 46.31828125 -0.34375 45.625 C0.43226563 44.86703125 1.20828125 44.1090625 2.0078125 43.328125 C2.83023437 42.55984375 3.65265625 41.7915625 4.5 41 C5.29148437 40.23171875 6.08296875 39.4634375 6.8984375 38.671875 C10.55542989 35.14677414 14.28319478 31.72472123 18.125 28.40234375 C22.09934318 24.96300831 25.81062291 21.30291769 29.5 17.5625 C31.645 15.396875 33.79 13.23125 36 11 C24.12 10.67 12.24 10.34 0 10 C0 6.7 0 3.4 0 0 Z " fill="#FEF6F7" transform="translate(323,294)"/>
<path d="M0 0 C5.28 0 10.56 0 16 0 C16 18.48 16 36.96 16 56 C32.83 56 49.66 56 67 56 C67 60.29 67 64.58 67 69 C44.89 69 22.78 69 0 69 C0 46.23 0 23.46 0 0 Z " fill="#FEF8F9" transform="translate(63,282)"/>
<path d="M0 0 C14.85 0 29.7 0 45 0 C45 11.55 45 23.1 45 35 C30.15 35 15.3 35 0 35 C0 23.45 0 11.9 0 0 Z " fill="#ED1C3B" transform="translate(154,305)"/>
<path d="M0 0 C6.39042521 -0.02290475 12.78070909 -0.04283313 19.17114258 -0.05493164 C21.34692873 -0.05997308 23.52271147 -0.06680607 25.69848633 -0.07543945 C28.81853067 -0.08751338 31.93853038 -0.09323005 35.05859375 -0.09765625 C36.52733192 -0.10539818 36.52733192 -0.10539818 38.02574158 -0.11329651 C39.37702904 -0.11340981 39.37702904 -0.11340981 40.75561523 -0.11352539 C41.95141457 -0.11685631 41.95141457 -0.11685631 43.17137146 -0.12025452 C45 0 45 0 46 1 C46.08851529 3.59359322 46.11525945 6.16039691 46.09765625 8.75390625 C46.0962413 9.52935287 46.09482635 10.3047995 46.09336853 11.10374451 C46.08775345 13.59003494 46.07519846 16.0762366 46.0625 18.5625 C46.05748694 20.24413933 46.0529237 21.92578006 46.04882812 23.60742188 C46.03777913 27.73831566 46.02050445 31.86914276 46 36 C41.38 36 36.76 36 32 36 C29.69 31.05 27.38 26.1 25 21 C22.03 21.66 19.06 22.32 16 23 C16.27714844 23.68707031 16.55429687 24.37414062 16.83984375 25.08203125 C17.20207031 25.98308594 17.56429688 26.88414062 17.9375 27.8125 C18.29714844 28.70582031 18.65679687 29.59914063 19.02734375 30.51953125 C19.73613486 32.3270909 20.3860247 34.15807409 21 36 C14.07 36 7.14 36 0 36 C0 24.12 0 12.24 0 0 Z " fill="#ED2443" transform="translate(244,304)"/>
<path d="M0 0 C52.8 0 105.6 0 160 0 C160 2.31 160 4.62 160 7 C107.2 7 54.4 7 0 7 C0 4.69 0 2.38 0 0 Z " fill="#FFFFFF" transform="translate(151,242)"/>
<path d="M0 0 C52.8 0 105.6 0 160 0 C160 2.31 160 4.62 160 7 C107.2 7 54.4 7 0 7 C0 4.69 0 2.38 0 0 Z " fill="#FFFFFF" transform="translate(151,227)"/>
<path d="M0 0 C52.8 0 105.6 0 160 0 C160 2.31 160 4.62 160 7 C107.2 7 54.4 7 0 7 C0 4.69 0 2.38 0 0 Z " fill="#FFFFFF" transform="translate(151,212)"/>
<path d="M0 0 C3.57545703 0.02280993 5.54438404 0.46007439 8.3125 2.75 C11.68489412 6.29101383 12.20776955 8.34300422 12.171875 13.26953125 C11.53668186 16.99093453 9.47270984 18.77812849 6.8125 21.375 C3.35510443 23.10369779 -0.40725568 22.86466895 -4.1875 22.375 C-7.05779869 20.58106332 -8.67881638 19.39236724 -10.1875 16.375 C-10.60698626 12.9891466 -10.68164522 9.75431569 -10.1875 6.375 C-7.75 3.3125 -7.75 3.3125 -5.1875 1.375 C-3.63766739 -0.17483261 -2.15081622 0.09367039 0 0 Z " fill="#EE2846" transform="translate(397.1875,282.625)"/>
<path d="M0 0 C1.08667969 -0.01740234 1.08667969 -0.01740234 2.1953125 -0.03515625 C5.10835029 -0.01903242 7.42652076 0.04713662 9.98828125 1.51171875 C11.47144691 4.24326323 11.28690828 6.48084343 11.1875 9.5625 C11.16042969 10.64917969 11.13335937 11.73585938 11.10546875 12.85546875 C11.07066406 13.68691406 11.03585938 14.51835937 11 15.375 C11.66 15.375 12.32 15.375 13 15.375 C13 16.035 13 16.695 13 17.375 C8.60780588 18.60941558 4.4103096 18.59634086 -0.125 18.625 C-0.94871094 18.645625 -1.77242187 18.66625 -2.62109375 18.6875 C-3.40871094 18.69265625 -4.19632812 18.6978125 -5.0078125 18.703125 C-5.72598145 18.7124707 -6.44415039 18.72181641 -7.18408203 18.73144531 C-8.08296143 18.55500488 -8.08296143 18.55500488 -9 18.375 C-11.29783606 14.92824591 -11.29754883 13.44171888 -11.3125 9.375 C-11.32925781 8.323125 -11.34601562 7.27125 -11.36328125 6.1875 C-11 3.375 -11 3.375 -9.98046875 1.5234375 C-6.81928277 -0.30967627 -3.54880845 -0.05683145 0 0 Z " fill="#ED2443" transform="translate(74,366.625)"/>
<path d="M0 0 C3.83625 -0.061875 3.83625 -0.061875 7.75 -0.125 C8.54889648 -0.14320801 9.34779297 -0.16141602 10.17089844 -0.18017578 C13.95261758 -0.20970558 16.80684118 -0.13437458 20 2 C20 4.31 20 6.62 20 9 C19.01 9.495 19.01 9.495 18 10 C18.66 10.66 19.32 11.32 20 12 C20.125 15.125 20.125 15.125 20 18 C19.01 18 18.02 18 17 18 C16.67 16.02 16.34 14.04 16 12 C9.07 11.505 9.07 11.505 2 11 C2 13.31 2 15.62 2 18 C1.34 18 0.68 18 0 18 C0 12.06 0 6.12 0 0 Z " fill="#FDE6E9" transform="translate(205,367)"/>
<path d="M0 0 C0.66 0 1.32 0 2 0 C2 5.94 2 11.88 2 18 C-8.7421875 18.1953125 -8.7421875 18.1953125 -12 18 C-14.42522207 15.57477793 -14.29629254 14.8279321 -14.3125 11.5 C-14.32925781 10.7059375 -14.34601563 9.911875 -14.36328125 9.09375 C-14.24339844 8.4028125 -14.12351562 7.711875 -14 7 C-10.83057116 4.88704744 -10.00370047 4.74749071 -6.375 4.8125 C-5.18003906 4.82216797 -5.18003906 4.82216797 -3.9609375 4.83203125 C-2 5 -2 5 -1 6 C-0.67 4.02 -0.34 2.04 0 0 Z " fill="#FDE3E7" transform="translate(380,367)"/>
<path d="M0 0 C0.66 0 1.32 0 2 0 C2 5.94 2 11.88 2 18 C-0.26875 18.061875 -2.5375 18.12375 -4.875 18.1875 C-6.78925781 18.23970703 -6.78925781 18.23970703 -8.7421875 18.29296875 C-9.81726563 18.19628906 -10.89234375 18.09960938 -12 18 C-14.46324069 14.30513897 -14.38991688 12.36706908 -14 8 C-12.765625 6.296875 -12.765625 6.296875 -11 5 C-8.80859375 4.671875 -8.80859375 4.671875 -6.4375 4.75 C-5.25994141 4.77320313 -5.25994141 4.77320313 -4.05859375 4.796875 C-2 5 -2 5 0 6 C0 4.02 0 2.04 0 0 Z " fill="#FDEBED" transform="translate(267,367)"/>
<path d="M0 0 C0.77085938 -0.01675781 1.54171875 -0.03351563 2.3359375 -0.05078125 C5.25700032 0.41280039 6.58069285 1.17569027 8.625 3.3125 C9.015625 5.79296875 9.015625 5.79296875 8.875 8.5 C8.83890625 9.40105469 8.8028125 10.30210937 8.765625 11.23046875 C8.69601563 12.26107422 8.69601563 12.26107422 8.625 13.3125 C6.33358714 13.36634521 4.04181812 13.40522087 1.75 13.4375 C-0.16425781 13.47230469 -0.16425781 13.47230469 -2.1171875 13.5078125 C-5.375 13.3125 -5.375 13.3125 -7.375 11.3125 C-7.421875 9.21875 -7.421875 9.21875 -7.125 6.8125 C-7.03734375 6.0184375 -6.9496875 5.224375 -6.859375 4.40625 C-5.90965674 0.30101622 -3.78494616 0.01886186 0 0 Z " fill="#FCDFE3" transform="translate(121.375,371.6875)"/>
<path d="M0 0 C1.08667969 -0.01740234 1.08667969 -0.01740234 2.1953125 -0.03515625 C5.10835029 -0.01903242 7.42652076 0.04713662 9.98828125 1.51171875 C11.47144691 4.24326323 11.28690828 6.48084343 11.1875 9.5625 C11.16042969 10.64917969 11.13335937 11.73585938 11.10546875 12.85546875 C11.07066406 13.68691406 11.03585938 14.51835937 11 15.375 C11.66 15.375 12.32 15.375 13 15.375 C13 16.035 13 16.695 13 17.375 C8.60780588 18.60941558 4.4103096 18.59634086 -0.125 18.625 C-0.94871094 18.645625 -1.77242187 18.66625 -2.62109375 18.6875 C-3.40871094 18.69265625 -4.19632812 18.6978125 -5.0078125 18.703125 C-5.72598145 18.7124707 -6.44415039 18.72181641 -7.18408203 18.73144531 C-8.08296143 18.55500488 -8.08296143 18.55500488 -9 18.375 C-11.29783606 14.92824591 -11.29754883 13.44171888 -11.3125 9.375 C-11.32925781 8.323125 -11.34601562 7.27125 -11.36328125 6.1875 C-11 3.375 -11 3.375 -9.98046875 1.5234375 C-6.81928277 -0.30967627 -3.54880845 -0.05683145 0 0 Z M-9 4.375 C-9.28108663 6.74598906 -9.28108663 6.74598906 -9.1875 9.375 C-9.18105469 10.261875 -9.17460938 11.14875 -9.16796875 12.0625 C-9.14581927 14.40106345 -9.14581927 14.40106345 -8 16.375 C-2.72 16.375 2.56 16.375 8 16.375 C8 15.715 8 15.055 8 14.375 C5.53673288 12.7303326 5.53673288 12.7303326 3 11.375 C5 12.04166667 7 12.70833333 9 13.375 C9.05399736 11.91707116 9.09279177 10.45857288 9.125 9 C9.14820312 8.18789063 9.17140625 7.37578125 9.1953125 6.5390625 C9.21370051 4.16157757 9.21370051 4.16157757 7 2.375 C3.71235985 2.05442129 3.71235985 2.05442129 0 2.125 C-1.8871875 2.11726563 -1.8871875 2.11726563 -3.8125 2.109375 C-7.09282361 2.03719545 -7.09282361 2.03719545 -9 4.375 Z " fill="#FCE1E5" transform="translate(74,366.625)"/>
<path d="M0 0 C0.86625 -0.00773437 1.7325 -0.01546875 2.625 -0.0234375 C5 0.375 5 0.375 6.8125 1.6484375 C8 3.375 8 3.375 8 7.375 C3.38 7.375 -1.24 7.375 -6 7.375 C-5.67 8.365 -5.34 9.355 -5 10.375 C-3.39592672 10.40208567 -1.7917215 10.42143483 -0.1875 10.4375 C1.15248047 10.45490234 1.15248047 10.45490234 2.51953125 10.47265625 C5.13413791 10.48509967 5.13413791 10.48509967 8 9.375 C7.34 10.695 6.68 12.015 6 13.375 C4.04233719 13.45582094 2.08373272 13.51410778 0.125 13.5625 C-0.96554687 13.59730469 -2.05609375 13.63210938 -3.1796875 13.66796875 C-4.11039062 13.57128906 -5.04109375 13.47460938 -6 13.375 C-8.46324069 9.68013897 -8.38991688 7.74206908 -8 3.375 C-5.73246045 0.19017099 -3.79635911 -0.03389606 0 0 Z " fill="#F9BCC6" transform="translate(284,371.625)"/>
<path d="M0 0 C1.31677734 0.00580078 1.31677734 0.00580078 2.66015625 0.01171875 C4.9375 0.3125 4.9375 0.3125 6.9375 2.3125 C6.9375 3.9625 6.9375 5.6125 6.9375 7.3125 C2.6475 7.3125 -1.6425 7.3125 -6.0625 7.3125 C-5.7325 8.3025 -5.4025 9.2925 -5.0625 10.3125 C-3.45842672 10.33958567 -1.8542215 10.35893483 -0.25 10.375 C1.08998047 10.39240234 1.08998047 10.39240234 2.45703125 10.41015625 C5.07163791 10.42259967 5.07163791 10.42259967 7.9375 9.3125 C7.9375 10.3025 7.9375 11.2925 7.9375 12.3125 C5.21207733 13.67521133 2.97662726 13.48173601 -0.0625 13.5 C-1.135 13.51417969 -2.2075 13.52835937 -3.3125 13.54296875 C-6.0625 13.3125 -6.0625 13.3125 -8.0625 11.3125 C-8.63223733 4.13380966 -8.63223733 4.13380966 -6.859375 1.578125 C-4.46999108 -0.10483237 -2.8995827 -0.05551484 0 0 Z " fill="#F9B9C2" transform="translate(352.0625,371.6875)"/>
<path d="M0 0 C2.5 1 2.5 1 4 2 C4 3.65 4 5.3 4 7 C-0.62 7 -5.24 7 -10 7 C-9.67 7.99 -9.34 8.98 -9 10 C-5.37 10.33 -1.74 10.66 2 11 C2 10.34 2 9.68 2 9 C2.66 9 3.32 9 4 9 C3.67 10.32 3.34 11.64 3 13 C0.85423363 13.02685938 -1.29162645 13.04633088 -3.4375 13.0625 C-4.63246094 13.07410156 -5.82742187 13.08570313 -7.05859375 13.09765625 C-10 13 -10 13 -11 12 C-11.203125 9.78515625 -11.203125 9.78515625 -11.25 7.0625 C-11.27578125 6.16660156 -11.3015625 5.27070313 -11.328125 4.34765625 C-11.21984375 3.57292969 -11.1115625 2.79820312 -11 2 C-7.29598872 -0.46934085 -4.29412135 -0.44928433 0 0 Z " fill="#FAC2CA" transform="translate(243,372)"/>
<path d="M0 0 C3.57545703 0.02280993 5.54438404 0.46007439 8.3125 2.75 C11.68489412 6.29101383 12.20776955 8.34300422 12.171875 13.26953125 C11.53668186 16.99093453 9.47270984 18.77812849 6.8125 21.375 C3.35510443 23.10369779 -0.40725568 22.86466895 -4.1875 22.375 C-7.05779869 20.58106332 -8.67881638 19.39236724 -10.1875 16.375 C-10.60698626 12.9891466 -10.68164522 9.75431569 -10.1875 6.375 C-7.75 3.3125 -7.75 3.3125 -5.1875 1.375 C-3.63766739 -0.17483261 -2.15081622 0.09367039 0 0 Z M-7.3125 4.875 C-9.35572828 8.68902613 -9.69346225 10.41452886 -8.81640625 14.5390625 C-7.79204823 17.52942442 -6.92257364 18.73395582 -4.1875 20.375 C-1.05437349 20.98991268 1.6812896 21.01015656 4.8125 20.375 C8.02263047 18.4985883 8.02263047 18.4985883 9.8125 15.375 C10.32771375 11.17968804 10.28859387 7.89365971 7.8125 4.375 C3.05982164 1.20654776 -3.04221139 0.46076908 -7.3125 4.875 Z " fill="#FCE0E4" transform="translate(397.1875,282.625)"/>
<path d="M0 0 C0 4.29 0 8.58 0 13 C0.66 13 1.32 13 2 13 C2 11.35 2 9.7 2 8 C3.75 8.125 3.75 8.125 6 9 C8.25 12.0625 8.25 12.0625 10 15 C8.43058802 16.56941198 6.85865006 16.2449847 4.6875 16.3125 C1.54437193 16.25753274 0.24559102 16.14735461 -2.5 14.5 C-4.55131262 11.08114564 -5.22859592 7.98410029 -5 4 C-2.9 0 -2.9 0 0 0 Z " fill="#ED2241" transform="translate(393,287)"/>
<path d="M0 0 C2.31243792 -0.02685412 4.6249627 -0.04632841 6.9375 -0.0625 C8.22527344 -0.07410156 9.51304687 -0.08570313 10.83984375 -0.09765625 C14 0 14 0 15 1 C15 2.98 15 4.96 15 7 C10.05 7 5.1 7 0 7 C0 4.69 0 2.38 0 0 Z " fill="#EE2A47" transform="translate(207,369)"/>
<path d="M0 0 C1.051875 -0.02126953 1.051875 -0.02126953 2.125 -0.04296875 C4 0.1875 4 0.1875 6 2.1875 C6.1875 5.25 6.1875 5.25 6 8.1875 C5 9.1875 5 9.1875 2.75 9.3203125 C1.8425 9.31773437 0.935 9.31515625 0 9.3125 C-1.36125 9.31636719 -1.36125 9.31636719 -2.75 9.3203125 C-5 9.1875 -5 9.1875 -6 8.1875 C-6.04092937 5.85452567 -6.04241723 3.52044775 -6 1.1875 C-3.77109005 0.07304502 -2.46944894 0.02269714 0 0 Z " fill="#ED2443" transform="translate(374,373.8125)"/>
<path d="M0 0 C3.63 0 7.26 0 11 0 C11.04241723 2.33294775 11.04092937 4.66702567 11 7 C10 8 10 8 7.71484375 8.09765625 C6.34005859 8.08025391 6.34005859 8.08025391 4.9375 8.0625 C4.01839844 8.05347656 3.09929687 8.04445313 2.15234375 8.03515625 C1.44207031 8.02355469 0.73179687 8.01195312 0 8 C0 5.36 0 2.72 0 0 Z " fill="#ED1B3A" transform="translate(256,375)"/>
<path d="M0 0 C2.97 0 5.94 0 9 0 C9.86476913 3.45907651 9.90870491 5.59235658 9 9 C9.33 9.99 9.66 10.98 10 12 C9.34 12 8.68 12 8 12 C7.525625 11.360625 7.05125 10.72125 6.5625 10.0625 C5.0908635 7.71627037 5.0908635 7.71627037 2 7 C2 8.65 2 10.3 2 12 C1.34 12 0.68 12 0 12 C0 8.04 0 4.08 0 0 Z " fill="#FCE1E5" transform="translate(393,288)"/>
<path d="M0 0 C1.4540625 0.0309375 1.4540625 0.0309375 2.9375 0.0625 C2.9375 0.7225 2.9375 1.3825 2.9375 2.0625 C0.9575 2.0625 -1.0225 2.0625 -3.0625 2.0625 C-3.0625 3.0525 -3.0625 4.0425 -3.0625 5.0625 C-1.4125 5.0625 0.2375 5.0625 1.9375 5.0625 C2.2675 6.0525 2.5975 7.0425 2.9375 8.0625 C0.9575 8.0625 -1.0225 8.0625 -3.0625 8.0625 C-3.0625 11.3625 -3.0625 14.6625 -3.0625 18.0625 C-4.0525 18.0625 -5.0425 18.0625 -6.0625 18.0625 C-6.0625 14.7625 -6.0625 11.4625 -6.0625 8.0625 C-6.7225 8.0625 -7.3825 8.0625 -8.0625 8.0625 C-8.0625 7.4025 -8.0625 6.7425 -8.0625 6.0625 C-7.0725 6.0625 -6.0825 6.0625 -5.0625 6.0625 C-4.918125 5.258125 -4.77375 4.45375 -4.625 3.625 C-3.8465 0.0785 -3.8465 0.0785 0 0 Z " fill="#F9B8C2" transform="translate(305.0625,366.9375)"/>
<path d="M0 0 C1.19109375 0.00773437 1.19109375 0.00773437 2.40625 0.015625 C3.2003125 0.01046875 3.994375 0.0053125 4.8125 0 C6.90625 0.265625 6.90625 0.265625 8.90625 2.265625 C8.90625 3.585625 8.90625 4.905625 8.90625 6.265625 C4.94625 6.265625 0.98625 6.265625 -3.09375 6.265625 C-3.42375 4.945625 -3.75375 3.625625 -4.09375 2.265625 C-2.09375 0.265625 -2.09375 0.265625 0 0 Z " fill="#F9BBC5" transform="translate(119.09375,371.734375)"/>
<path d="M0 0 C4.42679007 1.47559669 4.91432696 3.90057368 7 8 C7 8.66 7 9.32 7 10 C9.96865509 7.45543849 11.3619751 4.51005335 13 1 C13.66 1 14.32 1 15 1 C13.28295898 7.08769088 10.52107613 13.47892387 6 18 C4.68 18 3.36 18 2 18 C2 17.34 2 16.68 2 16 C3.32 15.67 4.64 15.34 6 15 C4.96998521 11.48078279 3.73443406 8.39521293 1.875 5.25 C0 2 0 2 0 0 Z " fill="#FCDEE3" transform="translate(172,372)"/>
<path d="M0 0 C0.29296875 2.6015625 0.29296875 2.6015625 0.1875 5.625 C0.16042969 6.62789063 0.13335937 7.63078125 0.10546875 8.6640625 C0.07066406 9.43492187 0.03585937 10.20578125 0 11 C-0.66 11 -1.32 11 -2 11 C-2 7.7 -2 4.4 -2 1 C-6.50225924 0.90785142 -6.50225924 0.90785142 -11 1 C-12.58272601 2.58272601 -12.34735747 4.38034003 -12.5625 6.5625 C-12.64628906 7.38878906 -12.73007812 8.21507812 -12.81640625 9.06640625 C-12.87699219 9.70449219 -12.93757813 10.34257812 -13 11 C-13.66 11 -14.32 11 -15 11 C-15 7.04 -15 3.08 -15 -1 C-4.61538462 -3.07692308 -4.61538462 -3.07692308 0 0 Z " fill="#FCE1E5" transform="translate(337,374)"/>
<path d="M0 0 C0.33 1.32 0.66 2.64 1 4 C-3.29 4 -7.58 4 -12 4 C-11.67 4.99 -11.34 5.98 -11 7 C-9.39592672 7.02708567 -7.7917215 7.04643483 -6.1875 7.0625 C-4.84751953 7.07990234 -4.84751953 7.07990234 -3.48046875 7.09765625 C-0.86586209 7.11009967 -0.86586209 7.11009967 2 6 C2 6.99 2 7.98 2 9 C-0.72542267 10.36271133 -2.96087274 10.16923601 -6 10.1875 C-7.0725 10.20167969 -8.145 10.21585937 -9.25 10.23046875 C-12 10 -12 10 -14 8 C-14.125 4.875 -14.125 4.875 -14 2 C-13.34 1.67 -12.68 1.34 -12 1 C-12 1.66 -12 2.32 -12 3 C-8.04 3 -4.08 3 0 3 C0 2.01 0 1.02 0 0 Z " fill="#FEF8F9" transform="translate(358,375)"/>
<path d="M0 0 C0.66 0 1.32 0 2 0 C2 0.99 2 1.98 2 3 C4.64 3 7.28 3 10 3 C10 3.33 10 3.66 10 4 C7.36 4 4.72 4 2 4 C2 6.97 2 9.94 2 13 C4.31 13 6.62 13 9 13 C9 11.68 9 10.36 9 9 C9.66 9 10.32 9 11 9 C10.125 13.875 10.125 13.875 9 15 C7.1875 15.1328125 7.1875 15.1328125 5 15.125 C4.278125 15.12757813 3.55625 15.13015625 2.8125 15.1328125 C1 15 1 15 0 14 C-0.07205511 12.31391034 -0.08386068 10.62499341 -0.0625 8.9375 C-0.05347656 8.01839844 -0.04445312 7.09929687 -0.03515625 6.15234375 C-0.02355469 5.44207031 -0.01195312 4.73179687 0 4 C-0.66 3.67 -1.32 3.34 -2 3 C-1.34 3 -0.68 3 0 3 C0 2.01 0 1.02 0 0 Z " fill="#FCE4E7" transform="translate(157,370)"/>
<path d="M0 0 C0.66 0 1.32 0 2 0 C2 1.32 2 2.64 2 4 C-2.62 4 -7.24 4 -12 4 C-11.67 4.99 -11.34 5.98 -11 7 C-9.39592672 7.02708567 -7.7917215 7.04643483 -6.1875 7.0625 C-4.84751953 7.07990234 -4.84751953 7.07990234 -3.48046875 7.09765625 C-0.86586209 7.11009967 -0.86586209 7.11009967 2 6 C1.34 7.32 0.68 8.64 0 10 C-1.95766281 10.08082094 -3.91626728 10.13910778 -5.875 10.1875 C-6.96554687 10.22230469 -8.05609375 10.25710938 -9.1796875 10.29296875 C-10.11039062 10.19628906 -11.04109375 10.09960938 -12 10 C-12.66 9.01 -13.32 8.02 -14 7 C-13.67 5.68 -13.34 4.36 -13 3 C-8.71 3 -4.42 3 0 3 C0 2.01 0 1.02 0 0 Z " fill="#FEF3F5" transform="translate(290,375)"/>
<path d="M0 0 C1.21236328 0.04060547 1.21236328 0.04060547 2.44921875 0.08203125 C3.06410156 0.11683594 3.67898438 0.15164063 4.3125 0.1875 C4.6425 1.1775 4.9725 2.1675 5.3125 3.1875 C2.0125 3.1875 -1.2875 3.1875 -4.6875 3.1875 C-4.6875 5.8275 -4.6875 8.4675 -4.6875 11.1875 C-1.7175 11.1875 1.2525 11.1875 4.3125 11.1875 C4.3125 11.5175 4.3125 11.8475 4.3125 12.1875 C1.0125 12.5175 -2.2875 12.8475 -5.6875 13.1875 C-8.15074069 9.49263897 -8.07741688 7.55456908 -7.6875 3.1875 C-5.45128639 0.07531737 -3.72446132 -0.1619331 0 0 Z " fill="#F8AAB6" transform="translate(260.6875,371.8125)"/>
<path d="M0 0 C0.33 0.99 0.66 1.98 1 3 C5.29 3 9.58 3 14 3 C14.33 2.34 14.66 1.68 15 1 C15 1.99 15 2.98 15 4 C10.38 4 5.76 4 1 4 C1.33 4.99 1.66 5.98 2 7 C5.63 7.33 9.26 7.66 13 8 C13 7.34 13 6.68 13 6 C13.66 6 14.32 6 15 6 C14.67 7.32 14.34 8.64 14 10 C11.85423363 10.02685938 9.70837355 10.04633088 7.5625 10.0625 C6.36753906 10.07410156 5.17257813 10.08570313 3.94140625 10.09765625 C1 10 1 10 0 9 C-0.07179964 7.48071962 -0.08392007 5.95832518 -0.0625 4.4375 C-0.05347656 3.61121094 -0.04445312 2.78492188 -0.03515625 1.93359375 C-0.02355469 1.29550781 -0.01195312 0.65742188 0 0 Z " fill="#FEF8F9" transform="translate(232,375)"/>
<path d="M0 0 C0.33 0 0.66 0 1 0 C1 1.65 1 3.3 1 5 C0.34 5 -0.32 5 -1 5 C-1.33 5.99 -1.66 6.98 -2 8 C-5.3 8 -8.6 8 -12 8 C-12.33 6.68 -12.66 5.36 -13 4 C-8.71 4 -4.42 4 0 4 C0 2.68 0 1.36 0 0 Z " fill="#EF3E58" transform="translate(359,375)"/>
<path d="M0 0 C1.21236328 0.02707031 1.21236328 0.02707031 2.44921875 0.0546875 C3.37154297 0.08949219 3.37154297 0.08949219 4.3125 0.125 C4.3125 0.785 4.3125 1.445 4.3125 2.125 C1.0125 2.455 -2.2875 2.785 -5.6875 3.125 C-5.3575 5.435 -5.0275 7.745 -4.6875 10.125 C-1.7175 10.455 1.2525 10.785 4.3125 11.125 C4.3125 11.455 4.3125 11.785 4.3125 12.125 C2.68925914 12.34662329 1.063779 12.55189803 -0.5625 12.75 C-1.46742188 12.86601562 -2.37234375 12.98203125 -3.3046875 13.1015625 C-4.09101563 13.10929687 -4.87734375 13.11703125 -5.6875 13.125 C-8.11272207 10.69977793 -7.98379254 9.9529321 -8 6.625 C-8.01675781 5.8309375 -8.03351563 5.036875 -8.05078125 4.21875 C-7.87095703 3.18234375 -7.87095703 3.18234375 -7.6875 2.125 C-4.48369983 -0.01086678 -3.66810033 -0.10632175 0 0 Z " fill="#FBD2D8" transform="translate(373.6875,371.875)"/>
<path d="M0 0 C4.62 0 9.24 0 14 0 C13.34 1.32 12.68 2.64 12 4 C8.37 4 4.74 4 1 4 C0.67 2.68 0.34 1.36 0 0 Z " fill="#EF3A55" transform="translate(233,379)"/>
<path d="M0 0 C0.99 0.33 1.98 0.66 3 1 C3 3.31 3 5.62 3 8 C2.01 8.495 2.01 8.495 1 9 C1.66 9.66 2.32 10.32 3 11 C3.125 14.125 3.125 14.125 3 17 C2.01 17 1.02 17 0 17 C-0.36122881 15.68942607 -0.71380311 14.37646376 -1.0625 13.0625 C-1.35833984 11.96615234 -1.35833984 11.96615234 -1.66015625 10.84765625 C-1.77230469 10.23792969 -1.88445312 9.62820313 -2 9 C-1.67 8.67 -1.34 8.34 -1 8 C-1 6.845 -1 5.69 -1 4.5 C-1 1 -1 1 0 0 Z " fill="#FCDCE1" transform="translate(222,368)"/>
<path d="M0 0 C4.62 0 9.24 0 14 0 C13.01 0.495 13.01 0.495 12 1 C11.67 1.99 11.34 2.98 11 4 C7.7 4 4.4 4 1 4 C0.67 2.68 0.34 1.36 0 0 Z " fill="#EF3551" transform="translate(278,379)"/>
<path d="M0 0 C0.66 0 1.32 0 2 0 C2 4.62 2 9.24 2 14 C6.29 14.33 10.58 14.66 15 15 C15 15.33 15 15.66 15 16 C12.70890403 16.08075665 10.41700733 16.13907731 8.125 16.1875 C6.21074219 16.23970703 6.21074219 16.23970703 4.2578125 16.29296875 C3.18273437 16.19628906 2.10765625 16.09960938 1 16 C-1.33368594 12.49947109 -1.24221979 11.00385663 -1.1875 6.875 C-1.18105469 5.79992187 -1.17460938 4.72484375 -1.16796875 3.6171875 C-1 1 -1 1 0 0 Z " fill="#FEF6F7" transform="translate(64,369)"/>
<path d="M0 0 C3.3 0 6.6 0 10 0 C10.33 1.32 10.66 2.64 11 4 C7.04 4 3.08 4 -1 4 C-0.67 2.68 -0.34 1.36 0 0 Z " fill="#EE2F4C" transform="translate(117,379)"/>
<path d="M0 0 C0.66 0 1.32 0 2 0 C2.33 3.3 2.66 6.6 3 10 C6.3 10.33 9.6 10.66 13 11 C12.67 11.66 12.34 12.32 12 13 C10.37536158 13.05395478 8.75021459 13.09277195 7.125 13.125 C6.22007813 13.14820313 5.31515625 13.17140625 4.3828125 13.1953125 C2 13 2 13 0 11 C-0.1953125 8.3984375 -0.1953125 8.3984375 -0.125 5.375 C-0.10695313 4.37210937 -0.08890625 3.36921875 -0.0703125 2.3359375 C-0.04710938 1.56507813 -0.02390625 0.79421875 0 0 Z " fill="#FBCFD6" transform="translate(92,372)"/>
<path d="M0 0 C2.97 0 5.94 0 9 0 C9.33 1.32 9.66 2.64 10 4 C6.37 3.67 2.74 3.34 -1 3 C-0.67 2.01 -0.34 1.02 0 0 Z " fill="#EF3B56" transform="translate(118,374)"/>
<path d="M0 0 C3.10662459 1.78630914 4.67346201 3.34643571 6.5 6.4375 C6.25 9.75 6.25 9.75 5.5 12.4375 C5.17 12.4375 4.84 12.4375 4.5 12.4375 C3.84 9.4675 3.18 6.4975 2.5 3.4375 C-1.955 2.4475 -1.955 2.4475 -6.5 1.4375 C-2.5 -0.5625 -2.5 -0.5625 0 0 Z " fill="#FBD0D6" transform="translate(402.5,283.5625)"/>
<path d="M0 0 C7.75 -0.125 7.75 -0.125 10 1 C10 1.66 10 2.32 10 3 C6.37 3 2.74 3 -1 3 C-0.67 2.01 -0.34 1.02 0 0 Z " fill="#EE2E4B" transform="translate(235,374)"/>
<path d="M0 0 C2.64 0 5.28 0 8 0 C8.33 0.99 8.66 1.98 9 3 C5.7 3 2.4 3 -1 3 C-0.67 2.01 -0.34 1.02 0 0 Z " fill="#EE2D4A" transform="translate(348,374)"/>
<path d="M0 0 C2.64 0 5.28 0 8 0 C8.33 0.99 8.66 1.98 9 3 C5.7 3 2.4 3 -1 3 C-0.67 2.01 -0.34 1.02 0 0 Z " fill="#EE2D4B" transform="translate(280,374)"/>
<path d="M0 0 C1.76462683 3.08809695 2 4.23312136 2 8 C-1.96 8 -5.92 8 -10 8 C-10 7.67 -10 7.34 -10 7 C-7.36 6.67 -4.72 6.34 -2 6 C-1.34 4.02 -0.68 2.04 0 0 Z " fill="#FCE2E6" transform="translate(267,377)"/>
<path d="M0 0 C0.66 0 1.32 0 2 0 C2 3.96 2 7.92 2 12 C1.34 12 0.68 12 0 12 C-1.03159626 8.90521121 -0.97482862 7.47368607 -0.5625 4.3125 C-0.46066406 3.50425781 -0.35882813 2.69601562 -0.25390625 1.86328125 C-0.17011719 1.24839844 -0.08632812 0.63351562 0 0 Z " fill="#FBD5DB" transform="translate(106,373)"/>
<path d="M0 0 C1.65 0 3.3 0 5 0 C5.33 1.32 5.66 2.64 6 4 C4.02 4 2.04 4 0 4 C0 2.68 0 1.36 0 0 Z " fill="#EE2B48" transform="translate(395,289)"/>
<path d="M0 0 C2.3125 -0.3125 2.3125 -0.3125 5 0 C6.81883009 2.3832946 8 3.95818337 8 7 C7.34 7 6.68 7 6 7 C5.525625 6.360625 5.05125 5.72125 4.5625 5.0625 C3.0908635 2.71627037 3.0908635 2.71627037 0 2 C0 1.34 0 0.68 0 0 Z " fill="#FBCBD2" transform="translate(395,293)"/>
<path d="M0 0 C0.66 0 1.32 0 2 0 C2 0.99 2 1.98 2 3 C-1.09478879 4.03159626 -2.52631393 3.97482862 -5.6875 3.5625 C-6.89986328 3.40974609 -6.89986328 3.40974609 -8.13671875 3.25390625 C-8.75160156 3.17011719 -9.36648438 3.08632813 -10 3 C-10 2.67 -10 2.34 -10 2 C-9.04287109 1.90912109 -9.04287109 1.90912109 -8.06640625 1.81640625 C-6.82697266 1.69072266 -6.82697266 1.69072266 -5.5625 1.5625 C-4.73878906 1.48128906 -3.91507812 1.40007812 -3.06640625 1.31640625 C-1.01337975 1.21069185 -1.01337975 1.21069185 0 0 Z " fill="#F7A2AE" transform="translate(358,381)"/>
<path d="M0 0 C0.66 0 1.32 0 2 0 C1.67 1.32 1.34 2.64 1 4 C-2.63 3.67 -6.26 3.34 -10 3 C-10 2.67 -10 2.34 -10 2 C-6.7 2 -3.4 2 0 2 C0 1.34 0 0.68 0 0 Z " fill="#F8ADB8" transform="translate(245,381)"/>
<path d="M0 0 C0.99 0.33 1.98 0.66 3 1 C3 3.31 3 5.62 3 8 C2.01 7.67 1.02 7.34 0 7 C-0.38133299 5.0085944 -0.71325582 3.00720923 -1 1 C-0.67 0.67 -0.34 0.34 0 0 Z " fill="#FAC1CA" transform="translate(222,368)"/>
<path d="M0 0 C0.66 0 1.32 0 2 0 C1.34 1.32 0.68 2.64 0 4 C-3.3 3.67 -6.6 3.34 -10 3 C-10 2.67 -10 2.34 -10 2 C-9.04287109 1.90912109 -9.04287109 1.90912109 -8.06640625 1.81640625 C-6.82697266 1.69072266 -6.82697266 1.69072266 -5.5625 1.5625 C-4.73878906 1.48128906 -3.91507812 1.40007812 -3.06640625 1.31640625 C-1.01337975 1.21069185 -1.01337975 1.21069185 0 0 Z " fill="#F8A8B4" transform="translate(290,381)"/>
</svg>
